<svg preserveAspectRatio="none" width="100%" height="100%" overflow="visible" style="display: block;" viewBox="0 0 139.071 139.072" fill="none" xmlns="http://www.w3.org/2000/svg">
<g id="Frame 5">
<path id="Vector" d="M66.6749 0.00104138C68.8413 -0.0169584 71.0034 0.198429 73.1238 0.643485C80.3602 2.16912 87.539 7.51478 91.5535 13.6923C98.3888 13.5098 104.629 12.4753 110.081 17.9395C113.217 21.0814 114.723 26.5745 111.143 30.0208C108.311 32.7475 101.83 34.203 97.9896 34.0841C98.0882 34.7507 98.343 38.5427 98.7064 38.6759C100.365 39.2835 103.795 39.0409 105.119 40.4218C105.393 41.3783 103.997 48.3057 103.685 49.4726C103.439 50.4013 103.101 51.3029 102.676 52.1638C101.974 53.5621 100.934 53.7707 99.4812 54.2391C99.5641 56.6197 99.6963 59.9565 99.4653 62.3071C98.8641 68.4252 96.7502 76.1708 94.1641 81.7333C95.6073 84.0957 96.9993 90.0202 97.2689 92.8334C99.7071 93.9026 103.169 94.8415 105.761 95.7703C111.91 97.9745 117.389 99.9042 123.275 102.722C131.466 106.642 136.035 110.994 139.071 119.841C137.087 121.911 133.426 123.752 130.839 125.131C113.191 134.534 91.7891 138.104 71.9809 138.874C71.9709 137.432 71.8749 136.023 71.7806 134.586C71.3132 127.465 71.2604 120.254 70.7721 113.144C70.717 109.957 70.3596 106.812 70.4418 103.651C69.8497 103.703 69.3091 103.646 68.7192 103.601C68.6378 105.075 68.8203 106.713 68.8962 108.204L69.1836 115.006C69.5703 122.763 70.1026 131.318 70.1949 139.039C69.4415 139.02 68.6778 139.029 67.9235 139.042C62.1455 139.139 56.3696 138.979 50.5957 138.689C37.6708 137.919 24.8154 136.242 12.1242 133.67C10.1717 133.276 1.9857 131.542 0.185545 130.722C-0.304022 129.946 0.313812 128.104 0.474039 127.169C0.983504 124.196 3.13469 119.051 5.17792 116.762C11.0975 110.132 21.0582 105.247 28.8895 101.058C31.2041 99.8201 34.0849 98.5741 36.1511 97.2546C36.2419 96.073 36.4878 94.4977 36.6782 93.2682C37.3777 88.7474 37.094 81.6769 42.3799 79.8516C45.6174 78.7337 46.4998 79.3878 45.6738 75.453C42.7635 73.3899 40.7177 71.3718 39.2963 68.0548C38.5745 65.4036 37.9286 65.348 36.2246 63.5069C32.35 59.3209 31.1102 53.8672 33.2704 48.8761C31.5205 44.3714 30.7575 38.8657 30.6102 34.0258C30.3043 23.9816 34.0021 17.6043 40.6792 10.4816C47.4353 3.27488 56.9428 0.1804 66.6749 0.00104138ZM66.1281 54.6061C65.9675 54.2409 65.3098 53.7722 64.9442 53.4552C63.3124 52.0405 62.8811 45.0164 61.8609 44.275C60.3641 44.2592 52.3458 46.1672 50.7156 46.6893C49.3542 48.3034 52.7461 54.7076 48.2253 55.1763C46.3974 55.366 45.7883 52.9106 44.8318 51.7505C43.2703 49.0158 38.5812 45.9914 35.8218 48.716C30.7526 53.7211 36.8518 65.0699 43.4105 65.3707C45.0852 65.475 45.9996 63.8268 47.5216 64.2937C48.2259 65.1006 46.7534 66.1673 46.1394 66.5552C47.8942 74.5304 48.2713 80.4967 48.904 88.4917C57.828 93.5556 75.7402 94.7793 84.4238 88.6348C82.7991 88.7377 79.8409 88.9753 78.2572 88.7308C70.1704 87.4816 61.302 84.3016 54.6979 79.4204C53.2295 78.3351 49.4169 73.1444 50.1994 71.3611C50.6015 71.0264 50.4116 71.1149 50.9189 71.0175C51.9125 71.4819 54.1427 77.0232 55.9213 78.1683C64.1522 83.4678 76.8291 89.1568 86.6764 85.985C89.6637 85.0226 91.7811 82.5128 92.9866 79.7625C94.2239 76.9626 97.2318 67.5274 97.2434 64.6734C92.7969 62.3426 91.6443 58.4514 95.2089 54.6069C93.5181 54.3569 93.1077 54.5676 91.2657 54.0806C91.9317 55.882 92.1584 56.1261 91.5839 58.0762C90.8649 60.5172 84.9699 62.1535 84.0359 59.8278C85.5235 58.6171 90.1414 60.5356 90.5009 56.8408C90.7288 54.4993 85.7072 47.0913 85.6036 45.0204C85.5903 44.7519 85.7787 44.3962 85.8845 44.1524C85.7937 43.9263 85.5579 43.6335 85.3211 43.5581C84.0316 43.1478 83.1105 45.2962 82.8789 46.2685C82.4273 48.1643 81.365 53.0693 79.5102 54.1252C76.978 55.5666 72.9852 55.5034 70.1961 55.3417C69.5393 55.2943 68.0082 55.0228 67.49 55.0548C68.0744 55.4127 68.8746 55.8749 69.3367 56.3577C70.5294 57.5847 71.1687 59.248 71.1059 60.9602C71.0467 62.5959 70.3559 64.039 69.1461 65.1353C67.8287 66.325 66.0938 66.9409 64.3231 66.8473C56.1214 66.3411 56.0634 53.6021 66.1281 54.6061ZM91.7388 52.6187C94.1042 53.1914 95.0969 53.0746 97.5692 53.0056C97.0749 50.294 96.4759 47.4298 96.2205 44.6952C96.1047 43.455 96.449 41.7464 96.2784 40.5451C95.8331 40.2717 95.1207 40.4191 94.589 40.49C92.2753 40.7052 89.7073 40.6949 88.2706 42.7664C88.1717 45.6473 88.896 51.1597 91.7388 52.6187ZM91.7838 103.779C94.0751 102.798 95.7707 99.5111 96.7327 97.2936C97.1737 96.277 97.5799 94.9221 96.0128 94.9286C94.8945 96.5915 94.3405 99.648 92.4282 101.316C91.8215 101.845 90.8189 102.518 90.8251 103.301C91.0753 103.688 91.287 103.786 91.7838 103.779ZM99.1429 52.8256C99.9576 52.4519 100.621 52.2193 101.175 51.4858C102.349 49.5593 102.631 47.4238 102.862 45.2104C102.96 44.2759 103.015 43.2926 102.824 42.3688C102.4 40.3174 99.8283 40.7852 98.3817 40.2957C98.1639 42.4092 97.9715 43.2927 98.1528 45.446C98.3028 47.226 99.2863 51.2904 99.1429 52.8256ZM37.6555 98.4646C37.4687 98.741 37.0632 99.1833 37.2377 99.518C39.9072 104.639 48.5099 109.433 53.8691 110.31C54.2067 109.982 54.2627 109.937 54.326 109.476C53.9598 108.774 53.2998 108.591 52.5262 108.347C48.5722 107.113 44.8991 105.111 41.7166 102.455C40.4909 101.424 38.8281 98.7798 37.6555 98.4646ZM66.1788 52.5113C68.8919 54.1015 72.2658 54.2736 75.3081 53.7072C76.5577 53.5565 78.4644 53.3205 79.1934 52.1988C80.3081 50.4833 82.5711 43.2383 80.5142 41.9362C78.4581 40.6343 72.7205 40.5542 70.3031 40.7762C68.9833 40.9071 65.3601 41.2241 64.6799 42.2178C63.1701 44.4231 65.1145 50.553 66.1788 52.5113ZM67.5805 101.838L70.4844 101.672C71.0682 101.59 70.9967 101.698 71.2697 101.34C71.1211 100.517 69.9004 95.1842 69.5814 94.7415C69.1844 94.5923 69.1035 94.6095 68.6768 94.6417C68.0204 96.1607 67.6146 100.128 67.5805 101.838ZM78.3993 25.3505C70.7633 30.6191 65.1139 33.5586 55.5586 34.1804C55.2889 35.2081 54.9948 36.4466 54.4203 37.3287C52.2872 40.6038 51.2548 39.7277 50.4364 43.7814C59.7095 41.6202 67.1213 38.0505 76.7911 39.3218C79.7492 39.2872 81.7478 41.0038 84.9983 40.8883C88.0887 40.7787 88.6608 39.4864 91.7471 39.2088C92.6322 39.1293 95.9849 38.8231 96.4987 38.4706C96.4205 38.1021 96.4967 38.279 96.263 38.1063C94.0913 36.5007 88.8736 40.0545 87.7484 37.7186C87.4406 34.8263 94.1312 33.9404 96.1195 34.0374C96.0194 33.7561 95.3968 31.9887 95.3064 31.939C94.4202 31.4509 90.6992 29.3642 89.9808 29.3176C89.9509 29.4186 89.7263 30.2149 89.6954 30.2661C87.5147 33.8782 79.0419 25.4473 78.3993 25.3505Z" fill="var(--fill-0, #070808)"/>
<path id="Vector_2" d="M37.3061 50.9471C42.4119 51.0126 46.339 59.6419 44.0128 60.3298C43.061 59.8582 42.7739 57.7967 42.0375 56.3825C41.7273 56.2125 41.829 56.2636 41.4353 56.2691C40.038 57.0822 40.7562 59.716 39.5799 59.9438C38.304 59.1562 39.1158 56.9649 39.4984 55.7778C39.8655 55.431 40.6084 54.9748 41.052 54.682C40.6075 54.3164 40.2455 54.0116 39.7726 53.6721C39.0948 53.1857 37.0706 52.5755 36.8148 51.8494C36.903 51.3095 36.9231 51.4215 37.3061 50.9471Z" fill="var(--fill-0, #070808)"/>
<path id="Vector_3" d="M75.882 68.1872C76.8246 68.1078 79.9174 68.5164 81.0151 68.6279C82.9144 68.8062 84.8217 68.8833 86.7292 68.8587C87.9009 68.8439 90.7032 67.7872 91.2428 68.7406C91.1536 69.3517 91.2597 69.1463 90.886 69.5646C87.527 70.7196 82.4469 70.2508 78.9348 69.8865C77.9585 69.7852 75.8909 69.7779 75.5721 68.7231L75.882 68.1872Z" fill="var(--fill-0, #070808)"/>
<path id="Vector_4" d="M87.0172 72.4339L87.5346 72.6001C87.7098 72.997 87.6723 72.8255 87.6097 73.3141C86.7797 74.3812 83.853 74.0206 82.6483 73.773C82.3603 73.6499 82.2984 73.564 82.0653 73.3458L82.0552 73.0309C82.7732 72.4179 85.466 72.7008 87.0172 72.4339Z" fill="var(--fill-0, #353839)"/>
<path id="Vector_5" d="M65.085 1.93327C66.2301 1.85297 67.3793 1.84541 68.5253 1.91069C75.8305 2.37715 81.7387 5.6085 86.829 10.7498C87.7467 11.6766 88.6823 12.8974 89.568 13.9117C85.0825 14.6596 81.8436 14.8825 77.1889 16.1465C65.0925 19.4313 54.0314 26.1697 45.2113 34.9909C41.9924 38.3305 39.2746 41.6232 36.5881 45.3985C36.0712 46.1249 35.4007 46.6143 34.6733 47.1112C33.7252 44.3806 32.9645 40.2153 32.7102 37.337C31.8495 27.594 33.6926 21.6455 39.823 14.2775C47.0063 5.64413 54.186 2.9294 65.085 1.93327Z" fill="var(--fill-0, #5A7A5D)"/>
<path id="Vector_6" d="M69.2922 34.3522C71.2601 34.1452 80.9895 34.1324 79.1141 38.0632C78.5478 39.2503 72.3641 37.8348 70.8796 37.8606C69.126 37.8115 66.9504 38.3866 65.2216 38.7475C64.0792 38.9859 62.0129 39.7186 61.1322 38.7484C61.1331 38.5678 61.1598 38.4035 61.2801 38.2615C63.1916 36.0045 66.5666 34.778 69.2922 34.3522Z" fill="var(--fill-0, #070808)"/>
<path id="Vector_7" d="M99.0214 15.4678C104.31 15.6219 109.932 18.0426 111.16 23.7641C112.524 30.1198 104.853 31.2865 100.346 32.0535C99.449 32.2131 98.4359 32.2171 97.5188 32.2503C97.5466 30.7097 97.5917 28.6213 96.9485 27.2218C94.9137 22.795 92.2472 20.4081 87.9527 18.5353C92.5046 16.5433 93.7226 15.6049 99.0214 15.4678Z" fill="var(--fill-0, #5A7A5D)"/>
<path id="Vector_8" d="M71.9788 42.9003C74.8877 42.8214 75.8348 47.5311 72.7632 48.9833C69.6369 48.7624 69.3549 44.5326 71.9788 42.9003Z" fill="var(--fill-0, #070808)"/>
<path id="Vector_9" d="M88.7912 15.9303L89.0457 15.9472C88.8633 16.1977 87.7434 16.6779 87.3588 16.9088C85.7785 17.8613 84.2297 18.865 82.7143 19.9183C71.4111 27.8829 66.4424 32.4783 51.2718 32.4077L50.9694 32.3145L51.0547 32.0731C52.2255 31.0385 54.0774 29.7003 55.3633 28.7625C65.1263 21.5016 76.6881 17.0634 88.7912 15.9303Z" fill="var(--fill-0, #5A7A5D)"/>
<path id="Vector_10" d="M67.4889 55.0541C68.0734 55.412 68.8735 55.8742 69.3357 56.3571C70.5283 57.584 71.1677 59.2473 71.1049 60.9595C71.0457 62.5953 70.3549 64.0384 69.1451 65.1346C67.8277 66.3243 66.0928 66.9402 64.3221 66.8466C56.1204 66.3404 56.0624 53.6015 66.127 54.6054L67.4889 55.0541Z" fill="var(--fill-0, #FEE6E6)"/>
<path id="Vector_11" d="M92.5952 42.6022C92.7668 42.6399 92.9374 42.6824 93.1066 42.73C95.6121 43.4461 95.5629 47.3902 93.1084 48.6973C92.026 48.509 91.8358 48.2153 91.0645 47.4571C90.3567 45.2305 90.4972 43.7782 92.5952 42.6022Z" fill="var(--fill-0, #070808)"/>
<path id="Vector_12" d="M95.2086 54.6097C95.9492 54.5725 96.8518 54.5025 97.5805 54.5221C97.8165 56.9034 97.7761 62.291 97.243 64.6762C92.7965 62.3455 91.6439 58.4542 95.2086 54.6097Z" fill="var(--fill-0, #FEE6E6)"/>
<path id="Vector_13" d="M74.2482 6.87199C73.8152 6.98834 73.5265 7.22254 73.4456 7.52307C73.3648 7.82361 73.4986 8.16586 73.8174 8.47453C74.1362 8.7832 74.614 9.03302 75.1456 9.16901C75.6773 9.30501 76.2193 9.31605 76.6524 9.1997C77.0855 9.08335 77.3742 8.84915 77.455 8.54862C77.5358 8.24808 77.4021 7.90583 77.0832 7.59716C76.7644 7.28849 76.2866 7.03867 75.755 6.90268C75.2233 6.76668 74.6813 6.75564 74.2482 6.87199ZM74.2482 6.87199L72.6153 7.31068M74.2482 6.87199C74.6813 6.75564 74.97 6.52144 75.0508 6.22091C75.1316 5.92037 74.9979 5.57812 74.6791 5.26945C74.3603 4.96078 73.8825 4.71096 73.3508 4.57497C72.8192 4.43897 72.2772 4.42794 71.8441 4.54428L70.2111 4.98297M73.3865 10.0771C72.9534 10.1934 72.6647 10.4276 72.5839 10.7282C72.5031 11.0287 72.6368 11.3709 72.9556 11.6796C73.2744 11.9883 73.7522 12.2381 74.2839 12.3741C74.8156 12.5101 75.3576 12.5211 75.7906 12.4048C76.2237 12.2884 76.5124 12.0542 76.5932 11.7537C76.674 11.4532 76.5403 11.1109 76.2215 10.8022L75.0194 9.63839M73.3865 10.0771L75.0194 9.63839M73.3865 10.0771C72.9534 10.1934 72.4114 10.1824 71.8798 10.0464C71.3481 9.91039 70.8703 9.66058 70.5515 9.3519C70.2327 9.04323 70.099 8.70098 70.1798 8.40045C70.2606 8.09991 70.5493 7.86571 70.9824 7.74936M75.0194 9.63839L72.6153 7.31068M70.2111 4.98297L72.6153 7.31068M70.2111 4.98297L68.5782 5.42165C68.1451 5.538 67.8564 5.7722 67.7756 6.07274C67.6948 6.37327 67.8285 6.71552 68.1473 7.02419C68.4661 7.33287 68.9439 7.58268 69.4756 7.71867C70.0073 7.85467 70.5493 7.86571 70.9824 7.74936M72.6153 7.31068L70.9824 7.74936" stroke="var(--stroke-0, #FFFB78)" stroke-width="1.08152"/>
</g>
</svg>
